# xmcd
#
# Track frame offsets:
#	150
#	17635
#	32377
#
# Disc length: 684 seconds
#
# Revision: 0
# Processed by: cddbd v1.5.1PL0 Copyright (c) Steve Scherf et al.
# Submitted via: audiograbber 1.83.01
#
DISCID=1402aa03
DTITLE=Into Another - Poison Fingers
DYEAR=1995
DGENRE=Rock
TTITLE0=Poison Fingers
TTITLE1=To Be Free
TTITLE2=Herbivore
EXTD=
EXTT0=
EXTT1=
EXTT2=
PLAYORDER=
